<?xml version="1.0"?>
<svg width="24" height="24" xmlns="http://www.w3.org/2000/svg" xmlns:svg="http://www.w3.org/2000/svg" data-name="Layer 1">
 <g class="layer">
  <title>Layer 1</title>
  <path d="m21.06,11.11l-5,0c-1.65,0 -3,1.35 -3,3l0,7c0,1.65 1.35,3 3,3l5,0c1.65,0 3,-1.35 3,-3l0,-7c0,-1.65 -1.35,-3 -3,-3zm-1,9l-3,0c-0.55,0 -1,-0.45 -1,-1s0.45,-1 1,-1l3,0c0.55,0 1,0.45 1,1s-0.45,1 -1,1zm0,-4l-3,0c-0.55,0 -1,-0.45 -1,-1s0.45,-1 1,-1l3,0c0.55,0 1,0.45 1,1s-0.45,1 -1,1zm-17,-10c0,-3.31 2.69,-6 6,-6s6,2.69 6,6s-2.69,6 -6,6s-6,-2.69 -6,-6zm9.03,18l-11.03,0c-0.56,0 -1,-0.46 -1,-1.02c0.01,-4.95 4.04,-8.98 9,-8.98l0,0c0.69,0 1.36,0.09 2,0.23l0,6.77c0,1.13 0.39,2.16 1.03,3z" fill="#bfbfbf" id="svg_1"/>
 </g>
</svg>