<?xml version="1.0"?>
<svg width="24" height="24" xmlns="http://www.w3.org/2000/svg" xmlns:svg="http://www.w3.org/2000/svg" data-name="Layer 1">
 <g class="layer">
  <title>Layer 1</title>
  <path d="m19,1l-14,0c-2.76,0 -5,2.24 -5,5l0,12c0,2.76 2.24,5 5,5l14,0c2.76,0 5,-2.24 5,-5l0,-12c0,-2.76 -2.24,-5 -5,-5zm-12.5,17.5c-0.83,0 -1.5,-0.67 -1.5,-1.5s0.67,-1.5 1.5,-1.5s1.5,0.67 1.5,1.5s-0.67,1.5 -1.5,1.5zm0,-5c-0.83,0 -1.5,-0.67 -1.5,-1.5s0.67,-1.5 1.5,-1.5s1.5,0.67 1.5,1.5s-0.67,1.5 -1.5,1.5zm0,-5c-0.83,0 -1.5,-0.67 -1.5,-1.5s0.67,-1.5 1.5,-1.5s1.5,0.67 1.5,1.5s-0.67,1.5 -1.5,1.5zm11.5,9.5l-7,0c-0.55,0 -1,-0.45 -1,-1s0.45,-1 1,-1l7,0c0.55,0 1,0.45 1,1s-0.45,1 -1,1zm0,-5l-7,0c-0.55,0 -1,-0.45 -1,-1s0.45,-1 1,-1l7,0c0.55,0 1,0.45 1,1s-0.45,1 -1,1zm0,-5l-7,0c-0.55,0 -1,-0.45 -1,-1s0.45,-1 1,-1l7,0c0.55,0 1,0.45 1,1s-0.45,1 -1,1z" fill="#bfbfbf" id="svg_1"/>
 </g>
</svg>