<?xml version="1.0"?>
<svg width="24" height="24" xmlns="http://www.w3.org/2000/svg" xmlns:svg="http://www.w3.org/2000/svg" data-name="Layer 1">
 <g class="layer">
  <title>Layer 1</title>
  <path d="m19.06,0.06l-14,0c-2.76,0 -5,2.24 -5,5l0,14c0,2.76 2.24,5 5,5l14,0c2.76,0 5,-2.24 5,-5l0,-14c0,-2.76 -2.24,-5 -5,-5zm-7,20c-3.02,0 -5.64,-1.7 -7,-4.18l0,2.18c0,0.55 -0.45,1 -1,1l0,0c-0.55,0 -1,-0.45 -1,-1l0,-3c0,-1.11 0.9,-2 2,-2l3,0c0.55,0 1,0.45 1,1l0,0c0,0.55 -0.45,1 -1,1l-1.17,0c1.04,1.79 2.96,3 5.17,3c2.72,0 5.02,-1.82 5.75,-4.31c0.12,-0.42 0.52,-0.69 0.95,-0.69l0,0c0.65,0 1.15,0.62 0.97,1.25c-0.97,3.32 -4.04,5.75 -7.67,5.75zm9,-11c0,1.11 -0.89,2 -2,2l-3,0c-0.55,0 -1,-0.45 -1,-1l0,0c0,-0.55 0.45,-1 1,-1l1.18,0c-1.03,-1.79 -2.97,-3 -5.18,-3c-2.72,0 -5.02,1.82 -5.75,4.31c-0.12,0.42 -0.52,0.69 -0.95,0.69l0,0c-0.65,0 -1.15,-0.62 -0.97,-1.25c0.97,-3.32 4.04,-5.75 7.67,-5.75c3.02,0 5.64,1.68 7,4.15l0,-2.15c0,-0.55 0.45,-1 1,-1l0,0c0.55,0 1,0.45 1,1l0,3z" fill="#bfbfbf" id="svg_1"/>
 </g>

</svg>